<svg width="84" height="47" viewBox="0 0 84 47" fill="none" xmlns="http://www.w3.org/2000/svg">
    <path
        d="M83.6824 37.1683C83.6824 37.0193 83.5582 36.92 83.3099 36.8703C83.0617 36.8703 82.9127 36.9448 82.863 37.0938C82.7141 39.7255 81.9196 41.7614 80.4796 43.2014C79.0396 44.691 77.1279 45.4359 74.7444 45.4359H70.201C68.5127 45.4359 67.2465 45.3117 66.4024 45.0635C65.5582 44.8152 64.9623 44.3683 64.6148 43.7228C64.3168 43.0772 64.1679 42.1338 64.1679 40.8924V24.5807H71.6906C74.3223 24.5807 76.1844 24.9779 77.2768 25.7724C78.4189 26.6166 78.9899 27.9572 78.9899 29.7945C78.9899 29.8938 79.1389 29.9435 79.4368 29.9435C79.7348 29.9435 79.8837 29.8938 79.8837 29.7945L79.8092 23.7614C79.8092 22.3214 79.8341 21.229 79.8837 20.4841L79.9582 16.909C79.9582 16.8097 79.8092 16.76 79.5113 16.76C79.2134 16.76 79.0644 16.8097 79.0644 16.909C79.0644 19.0938 78.4686 20.6579 77.2768 21.6014C76.1348 22.5448 74.1982 23.0166 71.4672 23.0166H64.1679V6.77931C64.1679 5.19035 64.3665 4.02345 64.7637 3.27862C65.2106 2.58345 66.0548 2.0869 67.2961 1.78897C68.5375 1.49104 70.4989 1.34207 73.1803 1.34207C73.3292 1.34207 73.4037 1.19311 73.4037 0.895176C73.4037 0.597244 73.3292 0.448277 73.1803 0.448277C71.1444 0.448277 69.5555 0.473106 68.4134 0.522762L61.7099 0.59724L56.6451 0.522762C55.7513 0.473106 54.4851 0.448277 52.8465 0.448277C52.7472 0.448277 52.6975 0.597244 52.6975 0.895176C52.6975 1.19311 52.7472 1.34207 52.8465 1.34207C54.7334 1.34207 56.1237 1.46621 57.0175 1.71448C57.9113 1.96276 58.5072 2.43449 58.8051 3.12966C59.1527 3.87449 59.3265 4.99173 59.3265 6.48138V40.9669C59.3265 42.4566 59.1527 43.549 58.8051 44.2441C58.5072 44.9393 57.9113 45.411 57.0175 45.6593C56.1734 45.9572 54.8079 46.1062 52.921 46.1062C52.8217 46.1062 52.772 46.2552 52.772 46.5531C52.772 46.851 52.8217 47 52.921 47H82.863C83.3099 47 83.5334 46.7766 83.5334 46.3297L83.6824 37.1683Z"
        fill="currentColor" />
    <path
        d="M0.22345 45.6579C0.074482 45.6579 0 45.8069 0 46.1048C0 46.4028 0.074482 46.5517 0.22345 46.5517H8.56552C8.96276 46.5517 9.68276 46.5517 10.7255 46.5517C11.7186 46.6014 13.1338 45.36 14.971 42.8276C16.8083 40.2455 18.571 37.8869 20.2593 35.7517L31.6552 21.3765L34.1131 23.76V40.5186C34.1131 42.0083 33.9641 43.1255 33.6662 43.8703C33.3683 44.5655 32.7972 45.0372 31.9531 45.2855C31.0593 45.5338 29.669 45.6579 27.7821 45.6579C27.6331 45.6579 27.5586 45.8069 27.5586 46.1048C27.5586 46.4028 27.6331 46.5517 27.7821 46.5517C29.2717 46.5517 30.4635 46.5269 31.3572 46.4772L36.571 46.4028L41.6359 46.4772C42.5297 46.5269 43.771 46.5517 45.36 46.5517C45.4593 46.5517 45.509 46.4028 45.509 46.1048C45.509 45.8069 45.4593 45.6579 45.36 45.6579C43.4731 45.6579 42.1076 45.5338 41.2635 45.2855C40.3697 45.0372 39.7738 44.5655 39.4759 43.8703C39.1283 43.1255 38.9545 42.0083 38.9545 40.5186V6.0331C38.9545 4.54345 39.1035 3.45103 39.4014 2.75586C39.6993 2.06069 40.2952 1.58896 41.189 1.34068C42.0331 1.04275 43.3986 0.893791 45.2855 0.893791C45.3848 0.893791 45.4345 0.744826 45.4345 0.446896C45.4345 0.148965 45.3848 0 45.2855 0L41.5614 0.074482C39.4759 0.173791 37.8124 0.223446 36.571 0.223446C35.131 0.223446 33.3683 0.173791 31.2828 0.074482L27.7821 0C27.6331 0 27.5586 0.148965 27.5586 0.446896C27.5586 0.744826 27.6331 0.893791 27.7821 0.893791C29.6193 0.893791 30.9848 1.04275 31.8786 1.34068C32.7228 1.63862 33.3186 2.16 33.6662 2.90483C33.9641 3.6 34.1131 4.69241 34.1131 6.18206V21.8979L18.1738 6.0331C16.5352 4.39448 15.7159 3.17793 15.7159 2.38344C15.7159 1.39034 17.1807 0.893791 20.1103 0.893791C20.2097 0.893791 20.2593 0.744826 20.2593 0.446896C20.2593 0.148965 20.2097 0 20.1103 0L16.9076 0.074482C14.9214 0.173791 13.109 0.223446 11.4703 0.223446C9.83173 0.223446 8.11862 0.173791 6.33104 0.074482L3.57518 0C3.42621 0 3.35173 0.148965 3.35173 0.446896C3.35173 0.744826 3.42621 0.893791 3.57518 0.893791C5.61104 0.893791 7.77104 1.34069 10.0552 2.23448C12.3393 3.12827 14.4745 4.54345 16.4607 6.48L28.229 18.0248L17.5035 31.7297C13.8786 36.4469 11.1228 39.7738 9.23586 41.7103C7.29931 43.6469 5.80966 44.789 4.7669 45.1366C3.72414 45.4841 2.20966 45.6579 0.22345 45.6579Z"
        fill="currentColor" />
</svg>